<svg xmlns="http://www.w3.org/2000/svg" width="512" height="450" style="overflow: visible;" viewBox="0 0 512 450" data-svgdocument="" id="_eg90l3bab_1" class="fl-svgdocument" x="0" y="0"><path text="My" fill="#1e252a" transform="matrix(3.5844950208203463, 0, 0, 3.5844950208203463, 137.13443803872389, 173.70720727243616)" space="preserve" text-anchor="middle" offset="0.5" font-scale="contain" font-size="48" font-family="Fredoka One" data-fl-textpath="" id="_eg90l3bab_225" font-weight="400" font-style="normal" data-uid="o_ej352a7en_27" d="M 3.9340000000000046-33.84L 3.9340000000000046-33.84Q 4.324000000000005-33.12  4.3940000000000055-32.54Q 4.464000000000006-31.97  4.464000000000006-30.86L 4.464000000000006-30.86L 4.464000000000006-4.22Q 4.464000000000006-0.91  2.6440000000000055-0.34L 2.6440000000000055-0.34Q 1.7240000000000038-0.05  0.3340000000000032-0.05Q-1.0559999999999974-0.05 -1.8759999999999977-0.29Q-2.686-0.53 -3.1159999999999997-0.86Q-3.5559999999999974-1.2 -3.7959999999999994-1.82L-3.7959999999999994-1.82Q-4.035999999999998-2.64 -4.035999999999998-4.32L-4.035999999999998-4.32L-4.035999999999998-20.4Q-5.235999999999997-18.91 -7.535999999999998-15.67Q-9.835999999999999-12.43 -10.465999999999998-11.62Q-11.085999999999999-10.8 -11.325999999999997-10.49Q-11.565999999999999-10.18 -12.505999999999997-9.62Q-13.435999999999996-9.07 -14.515999999999998-9.07Q-15.595999999999997-9.07 -16.485999999999997-9.58Q-17.375999999999998-10.08 -17.755999999999997-10.56L-17.755999999999997-10.56L-18.145999999999997-11.09Q-19.105999999999998-12.29 -21.936-16.2Q-24.766-20.11 -25.006-20.4L-25.006-20.4L-25.006-4.22Q-25.006-3.12 -25.075999999999997-2.57Q-25.156-2.02 -25.535999999999998-1.34L-25.535999999999998-1.34Q-26.256-0.05 -29.275999999999996-0.05L-29.275999999999996-0.05Q-32.205999999999996-0.05 -32.925999999999995-1.34L-32.925999999999995-1.34Q-33.315999999999995-2.02 -33.385999999999996-2.59Q-33.455999999999996-3.17 -33.455999999999996-4.32L-33.455999999999996-4.32L-33.455999999999996-30.96Q-33.455999999999996-32.06 -33.385999999999996-32.62Q-33.315999999999995-33.17 -32.925999999999995-33.89L-32.925999999999995-33.89Q-32.205999999999996-35.14 -29.185999999999996-35.14L-29.185999999999996-35.14Q-27.885999999999996-35.14 -26.955999999999996-34.82Q-26.016-34.51 -25.726-34.18L-25.726-34.18L-25.436-33.89L-14.546-19.58Q-6.385999999999999-30.38 -3.6459999999999972-33.84L-3.6459999999999972-33.84Q-2.8359999999999985-35.14  0.21400000000000574-35.14Q 3.264000000000003-35.14  3.9340000000000046-33.84ZM 31.824000000000005-25.01L 31.824000000000005-25.01Q 34.654-23.76  34.654-21.98L 34.654-21.98Q 34.654-21.12  34.274-20.35Q 33.884-19.58  33.884-19.54L 33.884-19.54L 21.314 8.59Q 20.924 9.5  20.664 9.98Q 20.404000000000003 10.46  19.824 10.9Q 19.244 11.33  18.384 11.33Q 17.524 11.33  15.844000000000003 10.61L 15.844000000000003 10.61Q 13.004000000000001 9.36  13.004000000000001 7.63L 13.004000000000001 7.63Q 13.004000000000001 6.48  17.614000000000004-3.36L 17.614000000000004-3.36L 8.064000000000002-19.44Q 7.104000000000002-21.02  7.104000000000002-21.79L 7.104000000000002-21.79Q 7.104000000000002-23.33  9.694000000000003-24.86L 9.694000000000003-24.86Q 11.324000000000002-25.82  12.244000000000003-25.82Q 13.154000000000002-25.82  13.724000000000002-25.44Q 14.304000000000002-25.06  14.564000000000002-24.65Q 14.834000000000001-24.24  17.204-20.18Q 19.584000000000003-16.13  21.744-12.62L 21.744-12.62Q 21.984-13.39  24.334000000000003-18.55Q 26.684000000000005-23.71  26.854-24.05Q 27.024-24.38  27.404000000000003-24.86L 27.404000000000003-24.86Q 28.034-25.68  29.164-25.68Q 30.284-25.68  31.824000000000005-25.01Z"/><g data-uid="o_ej352a7en_36" transform="matrix(2.871978492920018, 0, 0, 2.871978492920018, 394.4880281990002, 33.38816196401126)"><path d="M82.412,29.839l-6.268-11.926c-1.58-3.01-4.681-4.879-8.09-4.879c-1.467,0-2.93,0.361-4.231,1.047  c-1.388,0.729-2.548,1.789-3.396,3.092c-1.699-2.383-4.482-3.834-7.443-3.834c-1.461,0-2.922,0.361-4.221,1.045  c-1.682,0.884-3.046,2.278-3.898,3.967c-0.798-0.576-1.684-1.019-2.641-1.317c-2.299-0.714-4.823-0.483-6.953,0.637  c-1.358,0.713-2.498,1.739-3.337,2.996L26.266,9.879C24.683,6.87,21.582,5,18.174,5c-1.465,0-2.928,0.361-4.229,1.047  c-2.157,1.133-3.745,3.039-4.47,5.367c-0.725,2.329-0.498,4.799,0.636,6.956l19.097,36.34l-6.114-4.119  c-2.007-1.352-4.467-1.852-6.844-1.389c-2.395,0.468-4.461,1.837-5.821,3.858c-1.359,2.018-1.852,4.447-1.385,6.842  c0.467,2.396,1.835,4.464,3.853,5.822l42.856,28.867C56.146,94.859,56.609,95,57.086,95c0.385,0,0.77-0.096,1.112-0.275  l31.653-16.633c0.801-0.423,1.291-1.246,1.275-2.152C91.105,74.691,90.514,45.255,82.412,29.839z M57.238,89.833L15.566,61.766  c-1.989-1.34-2.517-4.048-1.177-6.035c0.649-0.963,1.635-1.616,2.774-1.84c0.277-0.054,0.56-0.08,0.84-0.08  c0.862,0,1.7,0.258,2.422,0.742l7.689,5.182c0.726,0.488,2.423,1.629,4.144,1.629c0.844,0,1.578-0.274,2.182-0.815  c2.195-1.97,0.452-5.29-0.123-6.382L14.34,16.147c-0.54-1.028-0.647-2.206-0.303-3.314c0.344-1.109,1.101-2.017,2.129-2.558  c0.621-0.326,1.317-0.498,2.015-0.498c1.625,0,3.103,0.891,3.856,2.324l16.353,31.12c0.592,1.128,2.087,1.6,3.225,1.005  c1.165-0.611,1.616-2.06,1.004-3.227l-6.954-13.234c-0.539-1.026-0.646-2.201-0.3-3.309c0.344-1.109,1.1-2.018,2.128-2.559  c1.018-0.534,2.219-0.644,3.314-0.304c1.108,0.346,2.017,1.102,2.557,2.129l8.52,16.213c0.591,1.128,2.089,1.602,3.226,1.003  c0.564-0.297,0.98-0.796,1.17-1.404c0.188-0.609,0.131-1.257-0.168-1.819l-6.95-13.233c-0.539-1.025-0.646-2.202-0.301-3.312  c0.346-1.11,1.101-2.02,2.126-2.559c0.621-0.325,1.318-0.498,2.016-0.498c1.625,0,3.104,0.892,3.855,2.324l8.521,16.214  c0.413,0.788,1.224,1.276,2.116,1.276c0.384,0,0.768-0.095,1.107-0.274c0.565-0.297,0.98-0.795,1.17-1.404  c0.19-0.609,0.131-1.256-0.166-1.82l-5.385-10.25c-0.539-1.026-0.646-2.202-0.301-3.313c0.346-1.109,1.1-2.019,2.125-2.557  c0.622-0.327,1.318-0.5,2.018-0.5c1.625,0,3.103,0.892,3.856,2.325l6.267,11.927c6.641,12.638,7.916,36.946,8.123,42.498  L57.238,89.833z" transform="matrix(0.9037087145038494, 0, 0, 0.9037087145038494, -47.42790583621269, -11.186004078375333)" data-uid="o_ej352a7en_34"/></g><path text="App" fill="#1e252a" transform="matrix(4.848783927802499, 0, 0, 4.848783927802499, 238.19974535711256, 384.89976248156046)" space="preserve" text-anchor="middle" offset="0.5" font-scale="contain" font-size="48" font-family="Fredoka One" data-fl-textpath="" id="_eg90l3bab_225" font-weight="400" font-style="normal" data-uid="o_ej352a7en_48" d="M-24.076000000000008-32.69L-24.076000000000008-32.69L-11.116000000000007-5.9Q-10.296000000000006-4.27 -10.296000000000006-3.46L-10.296000000000006-3.46Q-10.296000000000006-1.73 -13.076000000000008-0.34L-13.076000000000008-0.34Q-14.716000000000008 0.48 -15.646000000000008 0.48Q-16.586000000000006 0.48 -17.186000000000007 0.05Q-17.786000000000005-0.38 -18.046000000000006-0.86Q-18.316000000000006-1.34 -18.796000000000006-2.3L-18.796000000000006-2.3L-21.286000000000005-7.49L-34.586000000000006-7.49L-37.07600000000001-2.3Q-37.556000000000004-1.34 -37.82600000000001-0.91Q-38.086000000000006-0.48 -38.68600000000001-0.02Q-39.28600000000001 0.43 -40.226000000000006 0.43Q-41.156000000000006 0.43 -42.79600000000001-0.38L-42.79600000000001-0.38Q-45.57600000000001-1.73 -45.57600000000001-3.46L-45.57600000000001-3.46Q-45.57600000000001-4.27 -44.75600000000001-5.9L-44.75600000000001-5.9L-31.796000000000006-32.74Q-31.276000000000007-33.84 -30.196000000000005-34.51Q-29.116000000000007-35.18 -27.916000000000007-35.18L-27.916000000000007-35.18Q-25.316000000000006-35.18 -24.076000000000008-32.69ZM-24.746000000000006-14.59L-27.956000000000007-21.17L-31.126000000000005-14.59L-24.746000000000006-14.59ZM-7.656000000000008 6.86L-7.656000000000008 6.86L-7.656000000000008-21.17Q-7.656000000000008-22.27 -7.586000000000007-22.8Q-7.516000000000007-23.33 -7.176000000000007-24L-7.176000000000007-24Q-6.506000000000007-25.3 -3.9560000000000075-25.3Q-1.4160000000000075-25.3 -0.5260000000000069-24.65Q 0.3639999999999919-24  0.5039999999999925-22.75L 0.5039999999999925-22.75Q 2.3239999999999927-25.25  6.243999999999993-25.25Q 10.153999999999993-25.25  13.653999999999993-21.55Q 17.16399999999999-17.86  17.16399999999999-12.96Q 17.16399999999999-8.06  13.683999999999994-4.37Q 10.203999999999994-0.67  6.263999999999992-0.67Q 2.3239999999999927-0.67  0.5539999999999932-2.88L 0.5539999999999932-2.88L 0.5539999999999932 6.82Q 0.5539999999999932 7.92  0.4839999999999929 8.45Q 0.4039999999999928 8.98  0.0439999999999916 9.67Q-0.31600000000000783 10.37 -1.1760000000000073 10.66Q-2.0360000000000076 10.94 -3.526000000000008 10.94Q-5.016000000000008 10.94 -5.906000000000008 10.66Q-6.796000000000008 10.37 -7.156000000000008 9.7Q-7.516000000000007 9.02 -7.586000000000007 8.5Q-7.656000000000008 7.97 -7.656000000000008 6.86ZM 1.8439999999999923-15.74Q 0.7439999999999927-14.45  0.7439999999999927-12.91Q 0.7439999999999927-11.38  1.8739999999999917-10.1Q 3.0039999999999925-8.83  4.7539999999999925-8.83Q 6.503999999999991-8.83  7.723999999999993-10.08Q 8.953999999999994-11.33  8.953999999999994-12.91Q 8.953999999999994-14.5  7.803999999999991-15.77Q 6.643999999999991-17.04  4.803999999999993-17.04Q 2.9539999999999917-17.04  1.8439999999999923-15.74ZM 20.279999999999987 6.86L 20.279999999999987 6.86L 20.279999999999987-21.17Q 20.279999999999987-22.27  20.349999999999987-22.8Q 20.419999999999987-23.33  20.759999999999987-24L 20.759999999999987-24Q 21.42999999999999-25.3  23.97999999999999-25.3Q 26.51999999999999-25.3  27.40999999999999-24.65Q 28.29999999999999-24  28.43999999999999-22.75L 28.43999999999999-22.75Q 30.25999999999999-25.25  34.17999999999999-25.25Q 38.08999999999999-25.25  41.58999999999999-21.55Q 45.09999999999999-17.86  45.09999999999999-12.96Q 45.09999999999999-8.06  41.61999999999999-4.37Q 38.139999999999986-0.67  34.19999999999999-0.67Q 30.25999999999999-0.67  28.489999999999988-2.88L 28.489999999999988-2.88L 28.489999999999988 6.82Q 28.489999999999988 7.92  28.419999999999987 8.45Q 28.33999999999999 8.98  27.97999999999999 9.67Q 27.61999999999999 10.37  26.75999999999999 10.66Q 25.899999999999988 10.94  24.40999999999999 10.94Q 22.919999999999987 10.94  22.029999999999987 10.66Q 21.13999999999999 10.37  20.779999999999987 9.7Q 20.419999999999987 9.02  20.349999999999987 8.5Q 20.279999999999987 7.97  20.279999999999987 6.86ZM 29.779999999999987-15.74Q 28.67999999999999-14.45  28.67999999999999-12.91Q 28.67999999999999-11.38  29.809999999999988-10.1Q 30.93999999999999-8.83  32.68999999999999-8.83Q 34.43999999999998-8.83  35.65999999999999-10.08Q 36.889999999999986-11.33  36.889999999999986-12.91Q 36.889999999999986-14.5  35.73999999999999-15.77Q 34.579999999999984-17.04  32.73999999999999-17.04Q 30.889999999999986-17.04  29.779999999999987-15.74Z"/></svg>