<svg xmlns="http://www.w3.org/2000/svg" xmlns:xlink="http://www.w3.org/1999/xlink" version="1.1" id="Layer_1" x="0px" y="0px" viewBox="0 0 960 400" style="enable-background:new 0 0 960 400;" xml:space="preserve">
<style type="text/css">
	.st0{fill:#ACABB1;}
	.st1{fill:#6F9AD7;}
	.st2{fill:#538DC6;}
	.st3{fill:#191F6C;}
	.st4{clip-path:url(#SVGID_2_);fill:#6F9AD7;}
	.st5{fill:#FFFFFF;stroke:#1F1813;stroke-miterlimit:10;}
</style>
<g>
	<g>
		<path id="XMLID_123_" class="st0" d="M166.7,266.9V139.4h9.3v127.5H166.7L166.7,266.9z"/>
		<path id="XMLID_121_" class="st0" d="M209.7,180.1v15.2c6.6-11.7,18.7-16.5,30.8-16.7c23.1,0,39,14,39,37.6v49.1H271v-48.9    c0-19.3-12.1-29.6-30.8-29.5c-17.8,0.2-30.3,13.4-30.3,31v47.4h-8.6v-85.1L209.7,180.1L209.7,180.1z"/>
		<path id="XMLID_119_" class="st0" d="M318.1,154.4v25.7h29.4v7.1h-29.4V239c0,11.5,2.5,19.6,15.9,19.6c4.2,0,8.9-1.4,13.3-3.4    l3,6.9c-5.4,2.6-10.8,4.3-16.3,4.3c-18.4,0-24.3-10.7-24.3-27.4v-51.9h-18.4V180h18.4v-24.8L318.1,154.4z"/>
		<path id="XMLID_116_" class="st0" d="M362.3,222.6c0-25.5,19.6-43.9,43.9-43.9s46,14.6,42.7,47.9H371c1.8,20,17.3,31.5,35.2,31.5    c11.4,0,24.7-4.5,31.1-12.9l6.1,4.8c-8.4,10.9-23.4,16.4-37.3,16.4C381.9,266.4,362.3,249.7,362.3,222.6z M441.3,219.2    c-0.2-21-14.2-32.7-35-32.7c-17.8,0-33.2,11.9-35.2,32.7H441.3z"/>
		<path id="XMLID_114_" class="st0" d="M479.8,144.6v120.6h-8.6V144.6H479.8z"/>
		<path id="XMLID_111_" class="st0" d="M515.1,152.3c0,9-13.8,9-13.8,0S515.1,143.3,515.1,152.3z M503.7,179.7v85.5h8.6v-85.5    L503.7,179.7L503.7,179.7z"/>
		<g>
			<path class="st0" d="M588,212.2h42.7v30.9c-9.5,8.3-22,12.9-35.3,12.9c-36,0-52.1-25.6-52.1-50.9c-0.1-14.7,5-28,14.4-37.4     c9.3-9.4,22.3-14.3,37.7-14.3c14.1,0,28.3,5.6,38,14.9l1.5,1.4l8.1-8.8l-1.4-1.4c-12.4-12-28.8-18.7-46.2-18.7     c-19,0-35.9,6.5-47.6,18.2c-11.6,11.6-17.6,27.6-17.5,46.2c0,31.6,20.2,63.5,65.2,63.5c18.1,0,34.1-6.7,47.6-20l0.6-0.6v-48H588     V212.2z"/>
			<path class="st0" d="M706.5,176.7c-26.2,0-45.9,19.8-45.9,45.9c0,13.5,4.7,25.1,13.5,33.5c8.3,7.9,19.9,12.3,32.5,12.3     c15.8,0,30.7-6.6,38.9-17.1l1.2-1.6l-9.3-7.3l-1.2,1.6c-5.5,7.1-17.6,12.1-29.6,12.1c-14.7,0-30.2-8.5-32.9-27.5h77.4l0.2-1.8     c1.5-15-1.9-27.5-9.9-36.4C733.3,181.6,720.9,176.7,706.5,176.7z M739.5,217.2h-65.9c2.5-17.3,15.5-28.7,32.9-28.7     C726.3,188.4,738.5,199.1,739.5,217.2z"/>
			<path class="st0" d="M810.6,176.5c-11.9,0.2-22.1,4.6-28.8,12.4V178h-12.4v89.1H782v-49.4c0-16.7,11.9-28.9,28.3-29     c9.1-0.1,16.6,2.5,21.5,7.4c4.8,4.8,7.2,11.5,7.2,20.1v50.9h12.6V216C851.7,192,835.6,176.5,810.6,176.5z"/>
			<path class="st0" d="M945.9,190.4c-8-8.9-20.4-13.8-34.8-13.8c-26.2,0-45.9,19.8-45.9,45.9c0,13.5,4.7,25.1,13.5,33.5     c8.3,7.9,19.9,12.3,32.5,12.3c15.8,0,30.7-6.6,38.9-17.1l1.2-1.6l-9.3-7.3l-1.2,1.6c-5.5,7.1-17.6,12.1-29.6,12.1     c-14.7,0-30.2-8.5-32.9-27.5h77.4l0.2-1.8C957.3,211.8,953.9,199.3,945.9,190.4z M944.1,217.2h-65.9     c2.5-17.3,15.5-28.7,32.9-28.7C930.9,188.4,943.1,199.1,944.1,217.2z"/>
		</g>
		<g id="XMLID_35_">
			<g id="XMLID_858_">
				<path id="XMLID_914_" class="st1" d="M21.4,277.5c0,0,2.8,2.7,7,5.9c2.5,1.9,7.8,4.2,7.8,4.2s-3,8.3-3.6,11.2      c-0.9,4.4-2.3,18.4-2.3,18.4s-6.1-12.3-7.5-20.5C21.2,288.3,21.4,277.5,21.4,277.5z"/>
				<path id="XMLID_910_" class="st2" d="M34.9,250.7c0,0,1.3,2,9.7,7.4c5.5,3.5,12.6,6.3,12.6,6.3s13-9,16.8-11.9      c3.3-2.6,11.1-9.5,11.1-9.5s-4.2-3.7-13.1-9c-3.6-2.1-10.8-5.9-10.8-5.9s-9.2,8.3-12,10.9C45.8,242.1,34.9,250.7,34.9,250.7z"/>
				<circle id="XMLID_882_" class="st1" cx="82.3" cy="86.4" r="28.8"/>
				<path id="XMLID_880_" class="st3" d="M14.8,142.1c0,0-11.3,19.6,3,49c8.8,18,35.7,29.3,45.1,34.8c9.2,5.4,23.7,12.8,35.7,24.1      c12.7,12.1,14.4,21.8,14.4,21.8s7.3-14.7,6.4-25.4c-1.7-20.2-32.9-40.5-49.3-47.2c-9.7-4-22.6-12-28.2-15.8      C17.7,167.2,14.8,142.1,14.8,142.1z"/>
				<g id="XMLID_864_">
					<g>
						<path id="XMLID_874_" class="st1" d="M19.3,198.2c0,0,2.6,4.1,7,8.3c5.4,5.1,10.1,7.6,10.1,7.6L22,237c0,0-3.2-3.2-7-11.9        c-2.6-5.8-3.4-12.2-3.4-12.2L19.3,198.2z"/>
					</g>
					<g>
						<g>
							<defs>
								<path id="SVGID_1_" d="M19.3,198.2c0,0,2.6,4.1,7,8.3c5.4,5.1,10.1,7.6,10.1,7.6L22,237c0,0-3.2-3.2-7-11.9          c-2.6-5.8-3.4-12.2-3.4-12.2L19.3,198.2z"/>
							</defs>
							<clipPath id="SVGID_2_">
								<use xlink:href="#SVGID_1_" style="overflow:visible;"/>
							</clipPath>
							<path id="XMLID_875_" class="st4" d="M11.7,213c0,0,2.2-7,9.8-19.1c2.5-3.9,5.5-8.3,9.2-13.3c12.6-16.7,30.4-25.4,30.4-25.4         l25.1,14.9c3.7-4-17.4,9.2-37.9,29.6c-3.5,3.4-7,7.8-10.3,12.3c-8.8,12-16.2,25.4-16.2,25.4s-3.2-3.7-6.8-12.2         C11.7,217,11.7,213,11.7,213z"/>
						</g>
					</g>
				</g>
				<path id="XMLID_863_" class="st1" d="M34.9,175.6c0,0,4.9,3.8,9.5,7.1c3.1,2.2,12.8,8.4,12.8,8.4s11.4-10.2,15.5-13.2      c3.2-2.3,15.6-9.6,15.6-9.6S78.1,162,74.7,160c-2.9-1.7-11.9-6.1-11.9-6.1s-10.6,6.6-13.5,8.6C43.3,166.7,34.9,175.6,34.9,175.6      z"/>
				<path id="XMLID_862_" class="st1" d="M61.9,227.6c0,0,9.5,5.2,12.5,7.2c2.9,1.8,11.3,7.6,11.3,7.6l-15.3,12.9l-13.1,9.2      c0,0-9.6-4.5-12.6-6.3c-2.6-1.6-9.7-7.4-9.7-7.4l16.8-14.5L61.9,227.6z"/>
				<path id="XMLID_860_" class="st1" d="M83.9,203.5c0,0,8.6,5.2,11.3,7.1c4.7,3.5,9.9,8.5,9.9,8.5s5-6.2,6.2-8      c1.3-1.8,4.7-10.3,4.7-10.3s-1.6-5.5-6.4-12.9c-1.5-2.4-7.6-8.4-7.6-8.4s-6,10.7-8.2,13.2C91.6,195.2,83.9,203.5,83.9,203.5z"/>
				<path id="XMLID_29_" class="st3" d="M18.9,69.6c0,0-11.3,19.6,3,49c8.8,18,35.7,29.3,45.1,34.8c9.2,5.4,23.7,12.8,35.7,24.1      c12.7,12.1,14.4,21.8,14.4,21.8s7.3-14.7,6.4-25.4c-1.7-20.2-32.9-40.5-49.3-47.2c-9.7-4-22.6-12-28.2-15.8      C21.8,94.7,18.9,69.6,18.9,69.6z"/>
				<path id="XMLID_59_" class="st3" d="M10.1,214.2c0,0-11.3,19.6,3,49c8.8,18,35.7,29.3,45.1,34.8c9.2,5.4,23.7,12.8,35.7,24.1      c12.7,12.1,14.4,21.8,14.4,21.8s7.3-14.7,6.4-25.4c-1.7-20.2-32.9-40.5-49.3-47.2c-9.7-4-22.6-12-28.2-15.8      C13,239.3,10.1,214.2,10.1,214.2z"/>
			</g>
		</g>
		<path id="XMLID_1_" class="st5" d="M17.4,61.8"/>
	</g>
	
</g>
</svg>
