<svg id="Icons" height="512" viewBox="0 0 74 74" width="512" xmlns="http://www.w3.org/2000/svg"><path d="m33.6 51.51a43 43 0 0 1 -31.33-13.82 1 1 0 0 1 0-1.38 42.83 42.83 0 0 1 31.36-13.79 42.3 42.3 0 0 1 25.7 8.71 1 1 0 1 1 -1.21 1.59 40.33 40.33 0 0 0 -24.49-8.3 40.75 40.75 0 0 0 -29.24 12.48c13 13.22 32.3 16.3 48.37 7.62a1 1 0 0 1 1.35.4 1 1 0 0 1 -.4 1.36 42.23 42.23 0 0 1 -20.11 5.13z"/><path d="m33.63 51.48a14.48 14.48 0 1 1 14.48-14.48 14.5 14.5 0 0 1 -14.48 14.48zm0-27a12.48 12.48 0 1 0 12.48 12.52 12.5 12.5 0 0 0 -12.48-12.48z"/><path d="m33.63 43.48a6.48 6.48 0 1 1 6.48-6.48 6.49 6.49 0 0 1 -6.48 6.48zm0-11a4.48 4.48 0 1 0 4.48 4.52 4.49 4.49 0 0 0 -4.48-4.48z"/><path d="m61.56 51.48a10.45 10.45 0 1 1 10.44-10.48 10.45 10.45 0 0 1 -10.44 10.48zm0-18.89a8.45 8.45 0 1 0 8.44 8.41 8.46 8.46 0 0 0 -8.44-8.41z"/><path d="m61.56 45.78a1 1 0 0 1 -1-1v-7.49a1 1 0 1 1 2 0v7.49a1 1 0 0 1 -1 1z"/><path d="m65.3 42h-7.49a1 1 0 0 1 0-2h7.49a1 1 0 0 1 0 2z"/></svg>